<svg width="32" height="32" viewBox="0 0 32 32" xmlns="http://www.w3.org/2000/svg">
  <defs>
    <!-- Gradients matching the artistic brush strokes -->
    <linearGradient id="redBrush" x1="0%" y1="0%" x2="100%" y2="100%">
      <stop offset="0%" style="stop-color:#FF5722;stop-opacity:1" />
      <stop offset="50%" style="stop-color:#F44336;stop-opacity:1" />
      <stop offset="100%" style="stop-color:#D32F2F;stop-opacity:1" />
    </linearGradient>
    
    <linearGradient id="orangeBrush" x1="0%" y1="0%" x2="100%" y2="100%">
      <stop offset="0%" style="stop-color:#FFB74D;stop-opacity:1" />
      <stop offset="50%" style="stop-color:#FF9800;stop-opacity:1" />
      <stop offset="100%" style="stop-color:#F57C00;stop-opacity:1" />
    </linearGradient>
    
    <linearGradient id="greenBrush" x1="0%" y1="0%" x2="100%" y2="100%">
      <stop offset="0%" style="stop-color:#66BB6A;stop-opacity:1" />
      <stop offset="50%" style="stop-color:#4CAF50;stop-opacity:1" />
      <stop offset="100%" style="stop-color:#2E7D32;stop-opacity:1" />
    </linearGradient>
    
    <linearGradient id="blueBrush" x1="0%" y1="0%" x2="100%" y2="100%">
      <stop offset="0%" style="stop-color:#42A5F5;stop-opacity:1" />
      <stop offset="50%" style="stop-color:#2196F3;stop-opacity:1" />
      <stop offset="100%" style="stop-color:#1565C0;stop-opacity:1" />
    </linearGradient>
  </defs>
  
  <!-- Letter "A" - matching the red brush stroke style -->
  <path d="M3 28 L6 18 Q7 15 8.5 14 L10.5 14 Q12 15 13 18 L16 28" 
        fill="none" 
        stroke="url(#redBrush)" 
        stroke-width="2.8" 
        stroke-linecap="round" 
        stroke-linejoin="round"/>
  
  <!-- Crossbar of "A" -->
  <path d="M8 22 L12 22" 
        fill="none" 
        stroke="url(#redBrush)" 
        stroke-width="2.2" 
        stroke-linecap="round"/>
  
  <!-- Orange accent stroke on "A" -->
  <path d="M9 19 Q10 18.5 11 19" 
        fill="none" 
        stroke="url(#orangeBrush)" 
        stroke-width="1.5" 
        stroke-linecap="round"/>
  
  <!-- Red paint splashes -->
  <ellipse cx="4" cy="29" rx="0.8" ry="0.4" fill="url(#redBrush)" opacity="0.8" transform="rotate(15 4 29)"/>
  <circle cx="2.5" cy="27" r="0.3" fill="url(#redBrush)" opacity="0.6"/>
  <ellipse cx="5.5" cy="30" rx="0.4" ry="0.2" fill="url(#redBrush)" opacity="0.5" transform="rotate(-20 5.5 30)"/>
  
  <!-- Letter "g" - matching the blue brush stroke -->
  <path d="M18 18 Q20 16 23 16 Q26 16 26 19 Q26 22 23 22 L20 22 Q18 22 18 20 L18 24 Q18 27 20 28 Q22 29 24 28" 
        fill="none" 
        stroke="url(#blueBrush)" 
        stroke-width="2.8" 
        stroke-linecap="round" 
        stroke-linejoin="round"/>
  
  <!-- Green circular element inside "g" - matching the original -->
  <circle cx="22.5" cy="19" r="2.8" fill="none" stroke="url(#greenBrush)" stroke-width="2" opacity="0.9"/>
  <circle cx="22.5" cy="19" r="1.2" fill="white"/>
  
  <!-- Green accent swirls -->
  <path d="M20 19 Q21 18.5 22 19" 
        fill="none" 
        stroke="url(#greenBrush)" 
        stroke-width="1.2" 
        stroke-linecap="round" 
        opacity="0.7"/>
  
  <!-- Blue paint splashes -->
  <ellipse cx="26" cy="29" rx="0.8" ry="0.4" fill="url(#blueBrush)" opacity="0.8" transform="rotate(-15 26 29)"/>
  <circle cx="28" cy="27" r="0.3" fill="url(#blueBrush)" opacity="0.6"/>
  <ellipse cx="24.5" cy="30" rx="0.4" ry="0.2" fill="url(#blueBrush)" opacity="0.5" transform="rotate(20 24.5 30)"/>
  
  <!-- Artistic connecting elements -->
  <path d="M14 20 Q16 18 18 19" 
        fill="none" 
        stroke="url(#greenBrush)" 
        stroke-width="1.5" 
        stroke-linecap="round" 
        opacity="0.6"/>
  
  <!-- Small brush accent marks -->
  <path d="M6 14 L8 12" stroke="url(#redBrush)" stroke-width="1.2" stroke-linecap="round" opacity="0.7"/>
  <path d="M23 14 L25 12" stroke="url(#blueBrush)" stroke-width="1.2" stroke-linecap="round" opacity="0.7"/>
  
  <!-- Additional paint drops -->
  <circle cx="10" cy="30" r="0.2" fill="url(#orangeBrush)" opacity="0.5"/>
  <circle cx="20" cy="30" r="0.2" fill="url(#greenBrush)" opacity="0.5"/>
</svg>
